<svg xmlns="http://www.w3.org/2000/svg" viewBox="0 0 1920 1280" width="1920" height="1280">
<!-- Adair Systems murmuration field. 118 Fibonacci-scaled squares, 48px grid-snapped, teal-to-violet along flight path. Static, GPU-friendly. -->
<rect x="672" y="624" width="3" height="3" fill="#478FC6" opacity="0.058"/>
<rect x="912" y="480" width="8" height="8" fill="#3F97C0" opacity="0.05"/>
<rect x="960" y="336" width="13" height="13" fill="#5780D2" opacity="0.048"/>
<rect x="1632" y="288" width="5" height="5" fill="#795FED" opacity="0.052"/>
<rect x="1392" y="96" width="8" height="8" fill="#6870E0" opacity="0.052"/>
<rect x="864" y="912" width="3" height="3" fill="#4F88CC" opacity="0.069"/>
<rect x="864" y="480" width="34" height="34" fill="#5B7CD5" opacity="0.048"/>
<rect x="864" y="720" width="13" height="13" fill="#478FC6" opacity="0.058"/>
<rect x="1344" y="288" width="5" height="5" fill="#6C6CE3" opacity="0.067"/>
<rect x="480" y="864" width="3" height="3" fill="#29ACAE" opacity="0.076"/>
<rect x="576" y="816" width="3" height="3" fill="#389EBA" opacity="0.045"/>
<rect x="288" y="480" width="5" height="5" fill="#29ADAE" opacity="0.062"/>
<rect x="1488" y="192" width="3" height="3" fill="#6C6CE3" opacity="0.048"/>
<rect x="624" y="96" width="3" height="3" fill="#4D89CB" opacity="0.061"/>
<rect x="1008" y="864" width="5" height="5" fill="#5680D2" opacity="0.048"/>
<rect x="1008" y="816" width="13" height="13" fill="#478FC6" opacity="0.056"/>
<rect x="384" y="1200" width="8" height="8" fill="#33A2B6" opacity="0.073"/>
<rect x="1440" y="144" width="8" height="8" fill="#6473DD" opacity="0.06"/>
<rect x="528" y="816" width="5" height="5" fill="#2FA7B3" opacity="0.047"/>
<rect x="1488" y="240" width="3" height="3" fill="#6572DE" opacity="0.051"/>
<rect x="48" y="1152" width="5" height="5" fill="#2BABAF" opacity="0.066"/>
<rect x="1248" y="288" width="13" height="13" fill="#6770E0" opacity="0.05"/>
<rect x="912" y="576" width="5" height="5" fill="#4591C5" opacity="0.054"/>
<rect x="288" y="912" width="8" height="8" fill="#21B4A8" opacity="0.063"/>
<rect x="816" y="816" width="3" height="3" fill="#4097C0" opacity="0.047"/>
<rect x="1296" y="384" width="3" height="3" fill="#5F78D9" opacity="0.057"/>
<rect x="576" y="720" width="13" height="13" fill="#3E98BF" opacity="0.054"/>
<rect x="1104" y="288" width="5" height="5" fill="#5582D1" opacity="0.058"/>
<rect x="672" y="576" width="5" height="5" fill="#5285CF" opacity="0.044"/>
<rect x="1200" y="336" width="13" height="13" fill="#6671DF" opacity="0.05"/>
<rect x="1536" y="240" width="8" height="8" fill="#7266E8" opacity="0.043"/>
<rect x="1584" y="576" width="3" height="3" fill="#7265E8" opacity="0.062"/>
<rect x="480" y="1104" width="8" height="8" fill="#3A9CBC" opacity="0.054"/>
<rect x="1248" y="528" width="34" height="34" fill="#5C7BD7" opacity="0.056"/>
<rect x="1152" y="240" width="5" height="5" fill="#5D7AD7" opacity="0.058"/>
<rect x="1008" y="672" width="8" height="8" fill="#4E89CB" opacity="0.044"/>
<rect x="1056" y="960" width="3" height="3" fill="#4A8CC9" opacity="0.045"/>
<rect x="912" y="864" width="21" height="21" fill="#4294C2" opacity="0.047"/>
<rect x="1728" y="288" width="21" height="21" fill="#7A5EEE" opacity="0.042"/>
<rect x="1344" y="384" width="5" height="5" fill="#6B6DE2" opacity="0.069"/>
<rect x="1008" y="528" width="3" height="3" fill="#5284CF" opacity="0.058"/>
<rect x="1056" y="528" width="5" height="5" fill="#5284CF" opacity="0.046"/>
<rect x="528" y="912" width="8" height="8" fill="#3A9CBB" opacity="0.043"/>
<rect x="1200" y="240" width="8" height="8" fill="#5B7CD6" opacity="0.044"/>
<rect x="1440" y="96" width="5" height="5" fill="#6E6AE5" opacity="0.055"/>
<rect x="1680" y="192" width="3" height="3" fill="#7365E9" opacity="0.057"/>
<rect x="672" y="864" width="3" height="3" fill="#3C9ABD" opacity="0.059"/>
<rect x="1536" y="0" width="5" height="5" fill="#7068E6" opacity="0.065"/>
<rect x="480" y="480" width="8" height="8" fill="#28ADAD" opacity="0.071"/>
<rect x="1056" y="672" width="8" height="8" fill="#498DC8" opacity="0.061"/>
<rect x="1440" y="240" width="5" height="5" fill="#6671DF" opacity="0.071"/>
<rect x="912" y="528" width="3" height="3" fill="#4690C5" opacity="0.059"/>
<rect x="1200" y="480" width="21" height="21" fill="#6176DB" opacity="0.05"/>
<rect x="576" y="288" width="8" height="8" fill="#4691C5" opacity="0.061"/>
<rect x="912" y="384" width="8" height="8" fill="#4C8ACA" opacity="0.047"/>
<rect x="1584" y="192" width="3" height="3" fill="#6B6DE2" opacity="0.068"/>
<rect x="288" y="816" width="13" height="13" fill="#32A4B5" opacity="0.065"/>
<rect x="1728" y="144" width="8" height="8" fill="#7860ED" opacity="0.067"/>
<rect x="1200" y="192" width="8" height="8" fill="#6077DA" opacity="0.064"/>
<rect x="624" y="528" width="3" height="3" fill="#4294C2" opacity="0.065"/>
<rect x="1680" y="384" width="21" height="21" fill="#7661EC" opacity="0.048"/>
<rect x="144" y="1152" width="3" height="3" fill="#25B1AB" opacity="0.07"/>
<rect x="864" y="528" width="3" height="3" fill="#5285CF" opacity="0.07"/>
<rect x="864" y="768" width="3" height="3" fill="#4D8ACB" opacity="0.068"/>
<rect x="576" y="960" width="34" height="34" fill="#4195C1" opacity="0.055"/>
<rect x="1104" y="480" width="5" height="5" fill="#5C7BD7" opacity="0.053"/>
<rect x="1056" y="384" width="8" height="8" fill="#4F87CC" opacity="0.052"/>
<rect x="480" y="336" width="5" height="5" fill="#36A0B8" opacity="0.049"/>
<rect x="720" y="960" width="5" height="5" fill="#3B9BBC" opacity="0.064"/>
<rect x="1152" y="528" width="3" height="3" fill="#5E79D8" opacity="0.05"/>
<rect x="960" y="576" width="3" height="3" fill="#4F88CC" opacity="0.063"/>
<rect x="1392" y="240" width="8" height="8" fill="#6176DA" opacity="0.056"/>
<rect x="1104" y="384" width="3" height="3" fill="#5681D2" opacity="0.071"/>
<rect x="528" y="624" width="3" height="3" fill="#389EBA" opacity="0.062"/>
<rect x="384" y="576" width="8" height="8" fill="#34A2B6" opacity="0.068"/>
<rect x="576" y="1008" width="8" height="8" fill="#3A9CBB" opacity="0.068"/>
<rect x="1632" y="384" width="3" height="3" fill="#6E6AE5" opacity="0.075"/>
<rect x="960" y="432" width="5" height="5" fill="#5087CD" opacity="0.047"/>
<rect x="1488" y="528" width="3" height="3" fill="#6A6EE1" opacity="0.065"/>
<rect x="1104" y="528" width="21" height="21" fill="#5087CD" opacity="0.062"/>
<rect x="1056" y="336" width="8" height="8" fill="#5384CF" opacity="0.044"/>
<rect x="1152" y="336" width="5" height="5" fill="#6176DB" opacity="0.058"/>
<rect x="1104" y="720" width="3" height="3" fill="#5A7DD5" opacity="0.046"/>
<rect x="240" y="912" width="8" height="8" fill="#2FA6B3" opacity="0.049"/>
<rect x="144" y="912" width="5" height="5" fill="#2AABAF" opacity="0.068"/>
<rect x="912" y="1104" width="5" height="5" fill="#4690C5" opacity="0.076"/>
<rect x="912" y="768" width="5" height="5" fill="#488EC7" opacity="0.052"/>
<rect x="960" y="480" width="21" height="21" fill="#5483D0" opacity="0.058"/>
<rect x="96" y="816" width="13" height="13" fill="#2DA8B1" opacity="0.064"/>
<rect x="336" y="816" width="5" height="5" fill="#2AABAF" opacity="0.071"/>
<rect x="432" y="1056" width="8" height="8" fill="#35A1B7" opacity="0.064"/>
<rect x="1104" y="336" width="13" height="13" fill="#5B7CD6" opacity="0.059"/>
<rect x="768" y="480" width="13" height="13" fill="#478FC6" opacity="0.053"/>
<rect x="384" y="672" width="3" height="3" fill="#34A1B7" opacity="0.069"/>
<rect x="720" y="528" width="3" height="3" fill="#4C8BCA" opacity="0.049"/>
<rect x="0" y="816" width="5" height="5" fill="#27AEAC" opacity="0.062"/>
<rect x="336" y="960" width="8" height="8" fill="#399DBA" opacity="0.071"/>
<rect x="288" y="768" width="3" height="3" fill="#35A1B7" opacity="0.066"/>
<rect x="1152" y="480" width="3" height="3" fill="#5284CF" opacity="0.068"/>
<rect x="816" y="768" width="3" height="3" fill="#379FB9" opacity="0.055"/>
<rect x="576" y="768" width="8" height="8" fill="#3B9BBD" opacity="0.071"/>
<rect x="1632" y="336" width="8" height="8" fill="#6F69E5" opacity="0.067"/>
<rect x="768" y="864" width="13" height="13" fill="#4393C3" opacity="0.062"/>
<rect x="432" y="960" width="13" height="13" fill="#36A0B8" opacity="0.053"/>
<rect x="1248" y="96" width="3" height="3" fill="#5D7AD8" opacity="0.078"/>
<rect x="1584" y="336" width="3" height="3" fill="#7166E8" opacity="0.046"/>
<rect x="1392" y="576" width="5" height="5" fill="#6770DF" opacity="0.065"/>
<rect x="336" y="864" width="8" height="8" fill="#2DA8B1" opacity="0.064"/>
<rect x="672" y="1056" width="5" height="5" fill="#3C9ABD" opacity="0.07"/>
<rect x="720" y="816" width="5" height="5" fill="#3D99BE" opacity="0.046"/>
<rect x="960" y="528" width="8" height="8" fill="#5681D2" opacity="0.055"/>
<rect x="912" y="672" width="21" height="21" fill="#4A8DC8" opacity="0.051"/>
<rect x="1440" y="384" width="13" height="13" fill="#6671DF" opacity="0.052"/>
<rect x="528" y="1200" width="21" height="21" fill="#399DBB" opacity="0.061"/>
<rect x="384" y="720" width="21" height="21" fill="#4096C1" opacity="0.059"/>
<rect x="1536" y="432" width="3" height="3" fill="#6C6BE3" opacity="0.069"/>
<rect x="1440" y="288" width="13" height="13" fill="#6473DD" opacity="0.063"/>
<rect x="1248" y="192" width="13" height="13" fill="#6572DE" opacity="0.05"/>
</svg>